<svg width="117" height="27" viewBox="0 0 117 27" fill="none" xmlns="http://www.w3.org/2000/svg">
<path d="M0.82 20H12.39V18.544H2.315V11.303H10.83V9.847H2.315V2.736H12.39V1.28H0.82V20ZM13.9612 20H15.8072L20.4482 14.033L25.0632 20H26.9092L21.3062 12.902L26.7792 5.96H24.9592L20.4482 11.771L15.9112 5.96H14.0912L19.5642 12.902L13.9612 20ZM28.9782 26.24H30.4732V17.842C30.9672 18.6307 31.6042 19.2547 32.3842 19.714C33.1729 20.1647 34.0872 20.39 35.1272 20.39C36.4532 20.39 37.5755 20.065 38.4942 19.415C39.4129 18.7563 40.1105 17.868 40.5872 16.75C41.0639 15.6233 41.3022 14.358 41.3022 12.954C41.3022 11.5673 41.0639 10.3193 40.5872 9.21C40.1192 8.092 39.4345 7.208 38.5332 6.558C37.6319 5.89933 36.5442 5.57 35.2702 5.57C34.1349 5.57 33.1555 5.81267 32.3322 6.298C31.5089 6.78333 30.8459 7.45067 30.3432 8.3V5.96H28.9782V26.24ZM35.0362 18.96C33.9875 18.96 33.1165 18.7 32.4232 18.18C31.7299 17.6513 31.2099 16.9363 30.8632 16.035C30.5165 15.125 30.3432 14.098 30.3432 12.954C30.3432 11.7927 30.5165 10.7657 30.8632 9.873C31.2099 8.98033 31.7299 8.27833 32.4232 7.767C33.1165 7.25567 33.9789 7 35.0102 7C36.0762 7 36.9559 7.26433 37.6492 7.793C38.3425 8.313 38.8582 9.02367 39.1962 9.925C39.5342 10.8177 39.7032 11.8273 39.7032 12.954C39.7032 14.0893 39.5299 15.112 39.1832 16.022C38.8365 16.9233 38.3165 17.6383 37.6232 18.167C36.9299 18.6957 36.0675 18.96 35.0362 18.96ZM44.4218 20H45.9168V0.89H44.4218V20ZM55.5829 20.39C56.9696 20.39 58.1482 20.078 59.1189 19.454C60.0896 18.83 60.8306 17.959 61.3419 16.841C61.8619 15.723 62.1219 14.4273 62.1219 12.954C62.1219 11.5067 61.8662 10.2283 61.3549 9.119C60.8522 8.00967 60.1112 7.143 59.1319 6.519C58.1612 5.88633 56.9782 5.57 55.5829 5.57C54.2222 5.57 53.0522 5.882 52.0729 6.506C51.0936 7.12133 50.3439 7.98367 49.8239 9.093C49.3039 10.1937 49.0439 11.4807 49.0439 12.954C49.0439 14.41 49.2996 15.697 49.8109 16.815C50.3222 17.933 51.0632 18.8083 52.0339 19.441C53.0132 20.0737 54.1962 20.39 55.5829 20.39ZM55.5829 18.934C53.9622 18.934 52.7316 18.388 51.8909 17.296C51.0589 16.204 50.6429 14.7567 50.6429 12.954C50.6429 11.7927 50.8206 10.7657 51.1759 9.873C51.5312 8.98033 52.0729 8.28267 52.8009 7.78C53.5376 7.27733 54.4649 7.026 55.5829 7.026C57.2296 7.026 58.4646 7.56333 59.2879 8.638C60.1112 9.71267 60.5229 11.1513 60.5229 12.954C60.5229 14.7307 60.1112 16.1737 59.2879 17.283C58.4732 18.3837 57.2382 18.934 55.5829 18.934ZM64.9821 20H66.4901V13.045C66.4901 12.473 66.5161 11.888 66.5681 11.29C66.6288 10.6833 66.7674 10.107 66.9841 9.561C67.2094 9.00633 67.5604 8.521 68.0371 8.105C68.5744 7.64567 69.1551 7.377 69.7791 7.299C70.4118 7.221 71.0054 7.247 71.5601 7.377V5.96C70.9448 5.78667 70.2254 5.778 69.4021 5.934C68.5874 6.09 67.8984 6.42367 67.3351 6.935C66.9624 7.25567 66.6331 7.66733 66.3471 8.17V5.96H64.9821V20ZM74.0212 20H77.1542V12.096H86.0202V20H89.1402V1.28H86.0202V9.158H77.1542V1.28H74.0212V20ZM99.1678 20.39C100.52 20.39 101.755 20.0433 102.873 19.35C104 18.648 104.832 17.66 105.369 16.386L102.275 15.45C101.651 16.7847 100.555 17.452 98.9858 17.452C97.9198 17.452 97.0792 17.1443 96.4638 16.529C95.8485 15.905 95.4802 15.0123 95.3588 13.851H105.525C105.646 12.161 105.46 10.6963 104.966 9.457C104.472 8.21767 103.714 7.26 102.691 6.584C101.677 5.908 100.442 5.57 98.9858 5.57C97.6078 5.57 96.3945 5.882 95.3458 6.506C94.2972 7.12133 93.4782 7.99667 92.8888 9.132C92.2995 10.2673 92.0048 11.602 92.0048 13.136C92.0048 14.5573 92.3038 15.814 92.9018 16.906C93.5085 17.998 94.3492 18.8517 95.4238 19.467C96.4985 20.0823 97.7465 20.39 99.1678 20.39ZM99.1158 8.313C100.087 8.313 100.832 8.56867 101.352 9.08C101.881 9.58267 102.214 10.3843 102.353 11.485H95.4368C95.8095 9.37033 97.0358 8.313 99.1158 8.313ZM108.425 20H111.571V12.863C111.571 12.0483 111.719 11.3247 112.013 10.692C112.317 10.0593 112.789 9.56967 113.43 9.223C113.864 8.97167 114.349 8.82433 114.886 8.781C115.424 8.729 115.905 8.76367 116.329 8.885V5.96C115.697 5.86467 115.047 5.87767 114.379 5.999C113.712 6.11167 113.118 6.34567 112.598 6.701C112.304 6.883 112.039 7.104 111.805 7.364C111.571 7.61533 111.368 7.897 111.194 8.209V5.96H108.425V20Z" fill="black"/>
</svg>
