<svg width="171" height="21" viewBox="0 0 171 21" fill="none" xmlns="http://www.w3.org/2000/svg">
<path d="M8.177 20.39C9.48567 20.39 10.6383 20.1733 11.635 19.74C12.6403 19.3067 13.4247 18.687 13.988 17.881C14.56 17.075 14.846 16.113 14.846 14.995C14.846 14.1197 14.6857 13.396 14.365 12.824C14.053 12.252 13.6587 11.7927 13.182 11.446C12.7053 11.0907 12.22 10.8177 11.726 10.627C11.232 10.4363 10.8073 10.289 10.452 10.185L6.682 9.067C6.17933 8.91967 5.65067 8.729 5.096 8.495C4.55 8.261 4.08633 7.936 3.705 7.52C3.33233 7.104 3.146 6.55367 3.146 5.869C3.146 5.20167 3.34533 4.60367 3.744 4.075C4.14267 3.53767 4.68867 3.11733 5.382 2.814C6.084 2.502 6.89 2.35033 7.8 2.359C8.74467 2.359 9.60267 2.53667 10.374 2.892C11.1453 3.24733 11.778 3.74567 12.272 4.387C12.7747 5.02833 13.0867 5.778 13.208 6.636L14.755 6.363C14.573 5.245 14.1657 4.27867 13.533 3.464C12.909 2.64933 12.1073 2.01667 11.128 1.566C10.1487 1.11533 9.04367 0.89 7.813 0.89C6.59967 0.89 5.52067 1.10233 4.576 1.527C3.63133 1.943 2.89033 2.528 2.353 3.282C1.81567 4.036 1.547 4.91567 1.547 5.921C1.547 7.039 1.88933 7.95767 2.574 8.677C3.26733 9.39633 4.238 9.94233 5.486 10.315L10.192 11.719C10.6167 11.8403 11.0717 12.018 11.557 12.252C12.0423 12.486 12.4583 12.824 12.805 13.266C13.1603 13.708 13.338 14.3017 13.338 15.047C13.338 16.2257 12.8613 17.1703 11.908 17.881C10.9547 18.583 9.724 18.934 8.216 18.934C6.734 18.934 5.46867 18.5787 4.42 17.868C3.37133 17.1487 2.68233 16.1607 2.353 14.904L0.819 15.164C1.04433 16.23 1.49067 17.1573 2.158 17.946C2.834 18.726 3.68333 19.3283 4.706 19.753C5.73733 20.1777 6.89433 20.39 8.177 20.39ZM22.634 20H24.129V2.736H30.837V1.28H15.926V2.736H22.634V20ZM32.9235 20H44.4935V18.544H34.4185V11.303H42.9335V9.847H34.4185V2.736H44.4935V1.28H32.9235V20ZM47.6247 20H49.0807V4.725L56.0617 20H57.2837L64.2517 4.725V19.974H65.7207V1.28H64.2777L56.6857 17.842L49.0157 1.28H47.6247V20ZM75.7161 20.39C77.0247 20.39 78.1774 20.1733 79.1741 19.74C80.1794 19.3067 80.9637 18.687 81.5271 17.881C82.0991 17.075 82.3851 16.113 82.3851 14.995C82.3851 14.1197 82.2247 13.396 81.9041 12.824C81.5921 12.252 81.1977 11.7927 80.7211 11.446C80.2444 11.0907 79.7591 10.8177 79.2651 10.627C78.7711 10.4363 78.3464 10.289 77.9911 10.185L74.2211 9.067C73.7184 8.91967 73.1897 8.729 72.6351 8.495C72.0891 8.261 71.6254 7.936 71.2441 7.52C70.8714 7.104 70.6851 6.55367 70.6851 5.869C70.6851 5.20167 70.8844 4.60367 71.2831 4.075C71.6817 3.53767 72.2277 3.11733 72.9211 2.814C73.6231 2.502 74.4291 2.35033 75.3391 2.359C76.2837 2.359 77.1417 2.53667 77.9131 2.892C78.6844 3.24733 79.3171 3.74567 79.8111 4.387C80.3137 5.02833 80.6257 5.778 80.7471 6.636L82.2941 6.363C82.1121 5.245 81.7047 4.27867 81.0721 3.464C80.4481 2.64933 79.6464 2.01667 78.6671 1.566C77.6877 1.11533 76.5827 0.89 75.3521 0.89C74.1387 0.89 73.0597 1.10233 72.1151 1.527C71.1704 1.943 70.4294 2.528 69.8921 3.282C69.3547 4.036 69.0861 4.91567 69.0861 5.921C69.0861 7.039 69.4284 7.95767 70.1131 8.677C70.8064 9.39633 71.7771 9.94233 73.0251 10.315L77.7311 11.719C78.1557 11.8403 78.6107 12.018 79.0961 12.252C79.5814 12.486 79.9974 12.824 80.3441 13.266C80.6994 13.708 80.8771 14.3017 80.8771 15.047C80.8771 16.2257 80.4004 17.1703 79.4471 17.881C78.4937 18.583 77.2631 18.934 75.7551 18.934C74.2731 18.934 73.0077 18.5787 71.9591 17.868C70.9104 17.1487 70.2214 16.1607 69.8921 14.904L68.3581 15.164C68.5834 16.23 69.0297 17.1573 69.6971 17.946C70.3731 18.726 71.2224 19.3283 72.2451 19.753C73.2764 20.1777 74.4334 20.39 75.7161 20.39ZM92.4741 20V18.648C91.4254 18.8127 90.5631 18.8343 89.8871 18.713C89.2111 18.583 88.7171 18.219 88.4051 17.621C88.2404 17.3003 88.1494 16.9493 88.1321 16.568C88.1234 16.1867 88.1191 15.697 88.1191 15.099V7.325H92.4741V5.96H88.1191V2.06H86.6111V5.96H83.4651V7.325H86.6111V15.125C86.6111 15.775 86.6241 16.3557 86.6501 16.867C86.6761 17.3697 86.8061 17.8637 87.0401 18.349C87.3261 18.947 87.7551 19.3933 88.3271 19.688C88.8991 19.9827 89.5447 20.1473 90.2641 20.182C90.9921 20.2167 91.7287 20.156 92.4741 20ZM99.2119 20.39C100.425 20.39 101.504 20.1473 102.449 19.662C103.402 19.1767 104.148 18.4747 104.685 17.556V20H106.05V11.251C106.05 10.7483 106.024 10.25 105.972 9.756C105.92 9.25333 105.82 8.81567 105.673 8.443C105.326 7.54167 104.711 6.83967 103.827 6.337C102.952 5.82567 101.868 5.57 100.577 5.57C99.0603 5.57 97.8166 5.91233 96.8459 6.597C95.8753 7.28167 95.2296 8.261 94.9089 9.535L96.4429 9.964C96.9803 7.99667 98.3409 7.013 100.525 7.013C101.998 7.013 103.038 7.364 103.645 8.066C104.26 8.768 104.564 9.82967 104.555 11.251C104.009 11.3203 103.359 11.4027 102.605 11.498C101.851 11.5847 101.075 11.6887 100.278 11.81C99.4893 11.9313 98.7526 12.0657 98.0679 12.213C97.0453 12.4557 96.1743 12.8933 95.4549 13.526C94.7356 14.1587 94.3759 15.0687 94.3759 16.256C94.3759 16.9927 94.5536 17.6773 94.9089 18.31C95.2643 18.934 95.8016 19.4367 96.5209 19.818C97.2403 20.1993 98.1373 20.39 99.2119 20.39ZM99.2899 19.012C98.4493 19.012 97.7819 18.8733 97.2879 18.596C96.7939 18.3187 96.4386 17.9677 96.2219 17.543C96.0139 17.1183 95.9099 16.6937 95.9099 16.269C95.9099 15.697 96.0443 15.2247 96.3129 14.852C96.5903 14.4793 96.9326 14.1847 97.3399 13.968C97.7559 13.7513 98.1676 13.591 98.5749 13.487C99.1556 13.3397 99.8013 13.214 100.512 13.11C101.223 12.9973 101.929 12.9063 102.631 12.837C103.342 12.759 103.983 12.6897 104.555 12.629C104.555 12.941 104.542 13.305 104.516 13.721C104.499 14.1283 104.46 14.5097 104.399 14.865C104.217 16.1217 103.675 17.127 102.774 17.881C101.881 18.635 100.72 19.012 99.2899 19.012ZM109.425 20H110.933V13.045C110.933 12.473 110.959 11.888 111.011 11.29C111.072 10.6833 111.211 10.107 111.427 9.561C111.653 9.00633 112.004 8.521 112.48 8.105C113.018 7.64567 113.598 7.377 114.222 7.299C114.855 7.221 115.449 7.247 116.003 7.377V5.96C115.388 5.78667 114.669 5.778 113.845 5.934C113.031 6.09 112.342 6.42367 111.778 6.935C111.406 7.25567 111.076 7.66733 110.79 8.17V5.96H109.425V20ZM125.914 20V18.648C124.865 18.8127 124.003 18.8343 123.327 18.713C122.651 18.583 122.157 18.219 121.845 17.621C121.68 17.3003 121.589 16.9493 121.572 16.568C121.563 16.1867 121.559 15.697 121.559 15.099V7.325H125.914V5.96H121.559V2.06H120.051V5.96H116.905V7.325H120.051V15.125C120.051 15.775 120.064 16.3557 120.09 16.867C120.116 17.3697 120.246 17.8637 120.48 18.349C120.766 18.947 121.195 19.3933 121.767 19.688C122.339 19.9827 122.984 20.1473 123.704 20.182C124.432 20.2167 125.168 20.156 125.914 20ZM128.595 20H131.728V12.096H140.594V20H143.714V1.28H140.594V9.158H131.728V1.28H128.595V20ZM153.742 20.39C155.094 20.39 156.329 20.0433 157.447 19.35C158.574 18.648 159.406 17.66 159.943 16.386L156.849 15.45C156.225 16.7847 155.129 17.452 153.56 17.452C152.494 17.452 151.653 17.1443 151.038 16.529C150.423 15.905 150.054 15.0123 149.933 13.851H160.099C160.22 12.161 160.034 10.6963 159.54 9.457C159.046 8.21767 158.288 7.26 157.265 6.584C156.251 5.908 155.016 5.57 153.56 5.57C152.182 5.57 150.969 5.882 149.92 6.506C148.871 7.12133 148.052 7.99667 147.463 9.132C146.874 10.2673 146.579 11.602 146.579 13.136C146.579 14.5573 146.878 15.814 147.476 16.906C148.083 17.998 148.923 18.8517 149.998 19.467C151.073 20.0823 152.321 20.39 153.742 20.39ZM153.69 8.313C154.661 8.313 155.406 8.56867 155.926 9.08C156.455 9.58267 156.788 10.3843 156.927 11.485H150.011C150.384 9.37033 151.61 8.313 153.69 8.313ZM163 20H166.146V12.863C166.146 12.0483 166.293 11.3247 166.588 10.692C166.891 10.0593 167.363 9.56967 168.005 9.223C168.438 8.97167 168.923 8.82433 169.461 8.781C169.998 8.729 170.479 8.76367 170.904 8.885V5.96C170.271 5.86467 169.621 5.87767 168.954 5.999C168.286 6.11167 167.693 6.34567 167.173 6.701C166.878 6.883 166.614 7.104 166.38 7.364C166.146 7.61533 165.942 7.897 165.769 8.209V5.96H163V20Z" fill="black"/>
</svg>
