<?xml version="1.0" encoding="utf-8"?>
<!-- Generator: Adobe Illustrator 25.2.3, SVG Export Plug-In . SVG Version: 6.00 Build 0)  -->
<svg version="1.1" id="Layer_1" xmlns="http://www.w3.org/2000/svg" xmlns:xlink="http://www.w3.org/1999/xlink" x="0px" y="0px"
	 viewBox="0 0 80 90" style="enable-background:new 0 0 80 90;" xml:space="preserve">
<path d="M68.2,47.5c-3.7,0-6.9,1.8-8.9,4.6l-6.4-4.3c0.4-1.3,0.6-2.8,0.6-4.2c0-3.8-1.4-7.2-3.7-9.8l9.8-9.1C61,26.1,63,27,65.2,27
	c4.4,0,8-3.6,8-8s-3.6-8-8-8c-4.4,0-8,3.6-8,8c0,1.6,0.5,3.1,1.3,4.3l-9.9,9.2c-2.7-2.4-6.2-4-10.1-4c-3.3,0-6.3,1.1-8.7,2.8
	l-8.3-11.4c2.8-2,4.6-5.2,4.6-8.9C26,4.9,21,0,15,0S4,4.9,4,11c0,6.1,4.9,11,11,11c1.8,0,3.4-0.4,4.9-1.2l8.5,11.6
	c-3,2.7-4.9,6.7-4.9,11.1c0,4,1.6,7.7,4.2,10.4L15.9,65.6c-1.6-1.5-3.7-2.4-6.1-2.4c-5,0-9,4-9,9s4,9,9,9s9-4,9-9
	c0-1.9-0.6-3.6-1.6-5.1l12-11.9c2.6,2,5.8,3.3,9.3,3.3c1,0,2-0.1,3-0.3l5,16.3c-3,1.1-5.2,4.1-5.2,7.5c0,4.4,3.6,8,8,8s8-3.6,8-8
	s-3.6-8-8-8c-0.4,0-0.7,0-1.1,0.1l-5-16.3c3.9-1.3,7.1-4.1,8.8-7.8l6.1,4.1c-0.6,1.3-0.9,2.8-0.9,4.4c0,6.1,4.9,11,11,11
	s11-4.9,11-11C79.2,52.4,74.3,47.5,68.2,47.5z M65.2,13c3.3,0,6,2.7,6,6s-2.7,6-6,6c-3.3,0-6-2.7-6-6S61.9,13,65.2,13z M15,20
	c-5,0-9-4-9-9s4-9,9-9s9,4,9,9S19.9,20,15,20z M55.2,82c0,3.3-2.7,6-6,6s-6-2.7-6-6s2.7-6,6-6S55.2,78.7,55.2,82z M9.8,79.2
	c-3.9,0-7-3.1-7-7s3.1-7,7-7s7,3.1,7,7S13.6,79.2,9.8,79.2z M38.5,56.5c-7.2,0-13-5.8-13-13s5.8-13,13-13c7.2,0,13,5.8,13,13
	S45.7,56.5,38.5,56.5z M68.2,67.5c-5,0-9-4-9-9s4-9,9-9c5,0,9,4,9,9S73.2,67.5,68.2,67.5z"/>
</svg>
