<svg width="308" height="261" viewBox="0 0 308 261" fill="none" xmlns="http://www.w3.org/2000/svg">
<g filter="url(#filter0_d)">
<rect x="4" y="202" width="300" height="50" rx="15" fill="#DF4930"/>
</g>
<path fill-rule="evenodd" clip-rule="evenodd" d="M32.4899 220H37V220.082C37 220.613 36.0978 220.696 35.4703 220.818C35.2745 220.818 34.8429 220.859 34.7254 220.941C35.8625 221.555 36.0588 222.577 36.0588 224.05C36.0588 225.768 35.4313 226.668 34.7254 227.282C34.3333 227.691 33.9806 227.977 33.9806 228.386C33.9806 228.795 34.4507 229.204 34.9603 229.695C35.823 230.473 37 231.536 37 233.336C37 235.218 36.2157 236.568 34.7254 237.305C33.5489 237.918 32.294 238 31.784 238C31.706 238 31.6665 237.959 31.6276 237.959C31.6276 237.959 31.5881 238 31.5491 238C30.8038 238 27 237.795 27 234.195C27 230.677 31.1175 230.391 32.3724 230.391H32.4119C31.706 229.368 31.8234 228.345 31.8234 228.345C31.784 228.345 31.6665 228.345 31.5491 228.345C31.0781 228.345 30.1768 228.264 29.3924 227.732C28.4118 227.118 27.9412 226.014 27.9412 224.459C27.9412 220.164 32.4509 220 32.4899 220V220ZM32.2428 231C32.1675 231 32.0542 231 31.941 231C31.1123 231.041 30.3589 231.409 29.794 231.94C29.2671 232.472 28.9653 233.167 29.0032 233.862C29.116 235.293 30.51 236.111 32.2428 235.988C33.9373 235.865 35.1053 234.802 34.9925 233.371C34.9171 231.981 33.8624 231 32.2428 231V231ZM31.6006 221C31.4894 221 31.3787 221 31.2304 221.042C30.75 221.208 30.3802 221.667 30.1588 222.333C29.9737 223 29.9365 223.708 30.1216 224.542C30.4542 225.958 31.3787 227 32.3029 227C32.4136 227 32.5247 227 32.6354 226.959C33.6707 226.625 34.2995 224.917 33.8558 223.25C33.4121 221.5 32.7094 221 31.6006 221V221ZM45 227.046V228.954H41.9543V232H40.0457V228.954H37V227.046H40.0457V224H41.9543V227.046H45V227.046Z" fill="white"/>
<path d="M87.9322 234H95.5462V232.479H89.5342V221.04H87.9322V234ZM101.209 234.27C102.175 234.27 103.006 234.054 103.702 233.622C104.404 233.19 104.944 232.587 105.322 231.813C105.706 231.039 105.898 230.145 105.898 229.131C105.898 228.129 105.709 227.244 105.331 226.476C104.959 225.702 104.422 225.099 103.72 224.667C103.018 224.229 102.181 224.01 101.209 224.01C100.261 224.01 99.4356 224.226 98.7336 224.658C98.0316 225.084 97.4886 225.681 97.1046 226.449C96.7206 227.217 96.5286 228.111 96.5286 229.131C96.5286 230.133 96.7146 231.021 97.0866 231.795C97.4646 232.569 98.0046 233.175 98.7066 233.613C99.4086 234.051 100.243 234.27 101.209 234.27ZM101.209 232.749C100.231 232.749 99.4896 232.422 98.9856 231.768C98.4816 231.108 98.2296 230.229 98.2296 229.131C98.2296 228.069 98.4726 227.205 98.9586 226.539C99.4446 225.867 100.195 225.531 101.209 225.531C102.205 225.531 102.952 225.858 103.45 226.512C103.948 227.166 104.197 228.039 104.197 229.131C104.197 230.199 103.948 231.069 103.45 231.741C102.958 232.413 102.211 232.749 101.209 232.749ZM111.695 234.27C112.295 234.27 112.832 234.168 113.306 233.964C113.786 233.76 114.2 233.475 114.548 233.109V234.045C114.566 236.043 113.657 237.042 111.821 237.042C111.347 237.042 110.891 236.934 110.453 236.718C110.015 236.502 109.676 236.157 109.436 235.683L107.969 236.457C108.377 237.183 108.929 237.72 109.625 238.068C110.321 238.416 111.05 238.59 111.812 238.59C112.976 238.59 113.924 238.341 114.656 237.843C115.394 237.351 115.856 236.589 116.042 235.557C116.09 235.317 116.12 235.074 116.132 234.828C116.15 234.588 116.159 234.333 116.159 234.063V224.28H114.737V225.369C114.383 224.943 113.951 224.61 113.441 224.37C112.931 224.13 112.346 224.01 111.686 224.01C110.786 224.01 110.012 224.235 109.364 224.685C108.716 225.129 108.215 225.738 107.861 226.512C107.513 227.286 107.339 228.159 107.339 229.131C107.339 230.103 107.513 230.976 107.861 231.75C108.209 232.524 108.707 233.139 109.355 233.595C110.009 234.045 110.789 234.27 111.695 234.27ZM111.893 232.803C111.257 232.803 110.726 232.641 110.3 232.317C109.88 231.993 109.565 231.555 109.355 231.003C109.145 230.445 109.04 229.821 109.04 229.131C109.04 228.447 109.142 227.829 109.346 227.277C109.556 226.725 109.874 226.287 110.3 225.963C110.732 225.639 111.278 225.477 111.938 225.477C112.886 225.477 113.588 225.819 114.044 226.503C114.506 227.181 114.737 228.057 114.737 229.131C114.737 230.199 114.509 231.078 114.053 231.768C113.597 232.458 112.877 232.803 111.893 232.803ZM118.852 222.561H120.454V220.905H118.852V222.561ZM118.852 234H120.454V224.28H118.852V234ZM123.146 234H124.766V228.879C124.766 227.751 125.009 226.914 125.495 226.368C125.987 225.822 126.635 225.549 127.439 225.549C128.123 225.549 128.657 225.72 129.041 226.062C129.425 226.404 129.692 226.848 129.842 227.394C129.998 227.94 130.076 228.519 130.076 229.131V234H131.696V228.627C131.696 228.165 131.639 227.67 131.525 227.142C131.417 226.608 131.219 226.107 130.931 225.639C130.649 225.165 130.256 224.778 129.752 224.478C129.254 224.178 128.612 224.028 127.826 224.028C126.41 224.028 125.33 224.529 124.586 225.531V224.28H123.146V234ZM139.709 234H141.041L143.39 226.611L145.739 234H147.071L150.041 224.28H148.457L146.279 231.39L144.101 224.28H142.688L140.501 231.39L138.332 224.28L136.739 224.271L139.709 234ZM151.846 222.561H153.448V220.905H151.846V222.561ZM151.846 234H153.448V224.28H151.846V234ZM161.576 234V232.623C160.91 232.725 160.34 232.743 159.866 232.677C159.398 232.611 159.056 232.386 158.84 232.002C158.726 231.798 158.663 231.558 158.651 231.282C158.645 231 158.642 230.658 158.642 230.256V225.603H161.576V224.28H158.642V221.58H157.04V224.28H155.069V225.603H157.04V230.328C157.04 230.832 157.046 231.282 157.058 231.678C157.076 232.068 157.181 232.452 157.373 232.83C157.601 233.268 157.934 233.592 158.372 233.802C158.81 234.006 159.308 234.117 159.866 234.135C160.43 234.159 161 234.114 161.576 234ZM163.54 234H165.16V228.879C165.16 227.751 165.403 226.914 165.889 226.368C166.381 225.822 167.029 225.549 167.833 225.549C168.517 225.549 169.051 225.72 169.435 226.062C169.819 226.404 170.086 226.848 170.236 227.394C170.392 227.94 170.47 228.519 170.47 229.131V234H172.09V228.627C172.09 228.165 172.033 227.67 171.919 227.142C171.811 226.608 171.613 226.107 171.325 225.639C171.043 225.165 170.65 224.778 170.146 224.478C169.648 224.178 169.006 224.028 168.22 224.028C166.804 224.028 165.724 224.529 164.98 225.531V221.04H163.54V234ZM183.28 234.27C184.546 234.27 185.608 234.003 186.466 233.469C187.33 232.935 187.981 232.203 188.419 231.273C188.863 230.337 189.085 229.278 189.085 228.096C189.085 228.042 189.082 227.934 189.076 227.772C189.07 227.604 189.061 227.457 189.049 227.331H184.603V228.654H187.357C187.261 229.944 186.883 230.949 186.223 231.669C185.569 232.389 184.615 232.746 183.361 232.74C182.395 232.734 181.588 232.512 180.94 232.074C180.298 231.636 179.815 231.027 179.491 230.247C179.167 229.461 179.008 228.552 179.014 227.52C179.02 226.482 179.182 225.573 179.5 224.793C179.824 224.007 180.307 223.395 180.949 222.957C181.591 222.519 182.395 222.303 183.361 222.309C184.285 222.315 185.053 222.552 185.665 223.02C186.283 223.482 186.73 224.106 187.006 224.892L188.626 224.559C188.29 223.395 187.678 222.474 186.79 221.796C185.902 221.118 184.732 220.779 183.28 220.779C182.074 220.779 181.024 221.055 180.13 221.607C179.236 222.153 178.543 222.93 178.051 223.938C177.559 224.946 177.313 226.14 177.313 227.52C177.313 228.912 177.562 230.112 178.06 231.12C178.558 232.128 179.254 232.905 180.148 233.451C181.048 233.997 182.092 234.27 183.28 234.27ZM195.023 234.27C195.989 234.27 196.82 234.054 197.516 233.622C198.218 233.19 198.758 232.587 199.136 231.813C199.52 231.039 199.712 230.145 199.712 229.131C199.712 228.129 199.523 227.244 199.145 226.476C198.773 225.702 198.236 225.099 197.534 224.667C196.832 224.229 195.995 224.01 195.023 224.01C194.075 224.01 193.25 224.226 192.548 224.658C191.846 225.084 191.303 225.681 190.919 226.449C190.535 227.217 190.343 228.111 190.343 229.131C190.343 230.133 190.529 231.021 190.901 231.795C191.279 232.569 191.819 233.175 192.521 233.613C193.223 234.051 194.057 234.27 195.023 234.27ZM195.023 232.749C194.045 232.749 193.304 232.422 192.8 231.768C192.296 231.108 192.044 230.229 192.044 229.131C192.044 228.069 192.287 227.205 192.773 226.539C193.259 225.867 194.009 225.531 195.023 225.531C196.019 225.531 196.766 225.858 197.264 226.512C197.762 227.166 198.011 228.039 198.011 229.131C198.011 230.199 197.762 231.069 197.264 231.741C196.772 232.413 196.025 232.749 195.023 232.749ZM205.834 234.27C206.8 234.27 207.631 234.054 208.327 233.622C209.029 233.19 209.569 232.587 209.947 231.813C210.331 231.039 210.523 230.145 210.523 229.131C210.523 228.129 210.334 227.244 209.956 226.476C209.584 225.702 209.047 225.099 208.345 224.667C207.643 224.229 206.806 224.01 205.834 224.01C204.886 224.01 204.061 224.226 203.359 224.658C202.657 225.084 202.114 225.681 201.73 226.449C201.346 227.217 201.154 228.111 201.154 229.131C201.154 230.133 201.34 231.021 201.712 231.795C202.09 232.569 202.63 233.175 203.332 233.613C204.034 234.051 204.868 234.27 205.834 234.27ZM205.834 232.749C204.856 232.749 204.115 232.422 203.611 231.768C203.107 231.108 202.855 230.229 202.855 229.131C202.855 228.069 203.098 227.205 203.584 226.539C204.07 225.867 204.82 225.531 205.834 225.531C206.83 225.531 207.577 225.858 208.075 226.512C208.573 227.166 208.822 228.039 208.822 229.131C208.822 230.199 208.573 231.069 208.075 231.741C207.583 232.413 206.836 232.749 205.834 232.749ZM216.32 234.27C216.92 234.27 217.457 234.168 217.931 233.964C218.411 233.76 218.825 233.475 219.173 233.109V234.045C219.191 236.043 218.282 237.042 216.446 237.042C215.972 237.042 215.516 236.934 215.078 236.718C214.64 236.502 214.301 236.157 214.061 235.683L212.594 236.457C213.002 237.183 213.554 237.72 214.25 238.068C214.946 238.416 215.675 238.59 216.437 238.59C217.601 238.59 218.549 238.341 219.281 237.843C220.019 237.351 220.481 236.589 220.667 235.557C220.715 235.317 220.745 235.074 220.757 234.828C220.775 234.588 220.784 234.333 220.784 234.063V224.28H219.362V225.369C219.008 224.943 218.576 224.61 218.066 224.37C217.556 224.13 216.971 224.01 216.311 224.01C215.411 224.01 214.637 224.235 213.989 224.685C213.341 225.129 212.84 225.738 212.486 226.512C212.138 227.286 211.964 228.159 211.964 229.131C211.964 230.103 212.138 230.976 212.486 231.75C212.834 232.524 213.332 233.139 213.98 233.595C214.634 234.045 215.414 234.27 216.32 234.27ZM216.518 232.803C215.882 232.803 215.351 232.641 214.925 232.317C214.505 231.993 214.19 231.555 213.98 231.003C213.77 230.445 213.665 229.821 213.665 229.131C213.665 228.447 213.767 227.829 213.971 227.277C214.181 226.725 214.499 226.287 214.925 225.963C215.357 225.639 215.903 225.477 216.563 225.477C217.511 225.477 218.213 225.819 218.669 226.503C219.131 227.181 219.362 228.057 219.362 229.131C219.362 230.199 219.134 231.078 218.678 231.768C218.222 232.458 217.502 232.803 216.518 232.803ZM223.477 234H225.079V220.77H223.477V234ZM231.992 234.27C232.934 234.27 233.783 234.036 234.539 233.568C235.295 233.094 235.865 232.428 236.249 231.57L234.71 231.039C234.152 232.179 233.222 232.749 231.92 232.749C231.026 232.749 230.324 232.476 229.814 231.93C229.31 231.378 229.025 230.598 228.959 229.59H236.411C236.459 228.438 236.309 227.445 235.961 226.611C235.619 225.777 235.103 225.135 234.413 224.685C233.729 224.235 232.898 224.01 231.92 224.01C230.978 224.01 230.156 224.223 229.454 224.649C228.752 225.069 228.206 225.669 227.816 226.449C227.432 227.223 227.24 228.141 227.24 229.203C227.24 230.217 227.435 231.105 227.825 231.867C228.221 232.623 228.776 233.214 229.49 233.64C230.204 234.06 231.038 234.27 231.992 234.27ZM231.974 225.45C233.624 225.45 234.548 226.401 234.746 228.303H228.986C229.1 227.379 229.409 226.674 229.913 226.188C230.417 225.696 231.104 225.45 231.974 225.45ZM241.672 231.615H242.995V228.177H246.424V226.854H242.995V223.425H241.672V226.854H238.234V228.177H241.672V231.615Z" fill="white"/>
<g filter="url(#filter1_d)">
<rect x="4" y="127" width="300" height="50" rx="15" fill="#64CCF1"/>
</g>
<path d="M93.6451 159H101.259V157.479H95.2471V146.04H93.6451V159ZM106.921 159.27C107.887 159.27 108.718 159.054 109.414 158.622C110.116 158.19 110.656 157.587 111.034 156.813C111.418 156.039 111.61 155.145 111.61 154.131C111.61 153.129 111.421 152.244 111.043 151.476C110.671 150.702 110.134 150.099 109.432 149.667C108.73 149.229 107.893 149.01 106.921 149.01C105.973 149.01 105.148 149.226 104.446 149.658C103.744 150.084 103.201 150.681 102.817 151.449C102.433 152.217 102.241 153.111 102.241 154.131C102.241 155.133 102.427 156.021 102.799 156.795C103.177 157.569 103.717 158.175 104.419 158.613C105.121 159.051 105.955 159.27 106.921 159.27ZM106.921 157.749C105.943 157.749 105.202 157.422 104.698 156.768C104.194 156.108 103.942 155.229 103.942 154.131C103.942 153.069 104.185 152.205 104.671 151.539C105.157 150.867 105.907 150.531 106.921 150.531C107.917 150.531 108.664 150.858 109.162 151.512C109.66 152.166 109.909 153.039 109.909 154.131C109.909 155.199 109.66 156.069 109.162 156.741C108.67 157.413 107.923 157.749 106.921 157.749ZM117.408 159.27C118.008 159.27 118.545 159.168 119.019 158.964C119.499 158.76 119.913 158.475 120.261 158.109V159.045C120.279 161.043 119.37 162.042 117.534 162.042C117.06 162.042 116.604 161.934 116.166 161.718C115.728 161.502 115.389 161.157 115.149 160.683L113.682 161.457C114.09 162.183 114.642 162.72 115.338 163.068C116.034 163.416 116.763 163.59 117.525 163.59C118.689 163.59 119.637 163.341 120.369 162.843C121.107 162.351 121.569 161.589 121.755 160.557C121.803 160.317 121.833 160.074 121.845 159.828C121.863 159.588 121.872 159.333 121.872 159.063V149.28H120.45V150.369C120.096 149.943 119.664 149.61 119.154 149.37C118.644 149.13 118.059 149.01 117.399 149.01C116.499 149.01 115.725 149.235 115.077 149.685C114.429 150.129 113.928 150.738 113.574 151.512C113.226 152.286 113.052 153.159 113.052 154.131C113.052 155.103 113.226 155.976 113.574 156.75C113.922 157.524 114.42 158.139 115.068 158.595C115.722 159.045 116.502 159.27 117.408 159.27ZM117.606 157.803C116.97 157.803 116.439 157.641 116.013 157.317C115.593 156.993 115.278 156.555 115.068 156.003C114.858 155.445 114.753 154.821 114.753 154.131C114.753 153.447 114.855 152.829 115.059 152.277C115.269 151.725 115.587 151.287 116.013 150.963C116.445 150.639 116.991 150.477 117.651 150.477C118.599 150.477 119.301 150.819 119.757 151.503C120.219 152.181 120.45 153.057 120.45 154.131C120.45 155.199 120.222 156.078 119.766 156.768C119.31 157.458 118.59 157.803 117.606 157.803ZM124.565 147.561H126.167V145.905H124.565V147.561ZM124.565 159H126.167V149.28H124.565V159ZM128.858 159H130.478V153.879C130.478 152.751 130.721 151.914 131.207 151.368C131.699 150.822 132.347 150.549 133.151 150.549C133.835 150.549 134.369 150.72 134.753 151.062C135.137 151.404 135.404 151.848 135.554 152.394C135.71 152.94 135.788 153.519 135.788 154.131V159H137.408V153.627C137.408 153.165 137.351 152.67 137.237 152.142C137.129 151.608 136.931 151.107 136.643 150.639C136.361 150.165 135.968 149.778 135.464 149.478C134.966 149.178 134.324 149.028 133.538 149.028C132.122 149.028 131.042 149.529 130.298 150.531V149.28H128.858V159ZM145.422 159H146.754L149.103 151.611L151.452 159H152.784L155.754 149.28H154.17L151.992 156.39L149.814 149.28H148.401L146.214 156.39L144.045 149.28L142.452 149.271L145.422 159ZM157.559 147.561H159.161V145.905H157.559V147.561ZM157.559 159H159.161V149.28H157.559V159ZM167.289 159V157.623C166.623 157.725 166.053 157.743 165.579 157.677C165.111 157.611 164.769 157.386 164.553 157.002C164.439 156.798 164.376 156.558 164.364 156.282C164.358 156 164.355 155.658 164.355 155.256V150.603H167.289V149.28H164.355V146.58H162.753V149.28H160.782V150.603H162.753V155.328C162.753 155.832 162.759 156.282 162.771 156.678C162.789 157.068 162.894 157.452 163.086 157.83C163.314 158.268 163.647 158.592 164.085 158.802C164.523 159.006 165.021 159.117 165.579 159.135C166.143 159.159 166.713 159.114 167.289 159ZM169.253 159H170.873V153.879C170.873 152.751 171.116 151.914 171.602 151.368C172.094 150.822 172.742 150.549 173.546 150.549C174.23 150.549 174.764 150.72 175.148 151.062C175.532 151.404 175.799 151.848 175.949 152.394C176.105 152.94 176.183 153.519 176.183 154.131V159H177.803V153.627C177.803 153.165 177.746 152.67 177.632 152.142C177.524 151.608 177.326 151.107 177.038 150.639C176.756 150.165 176.363 149.778 175.859 149.478C175.361 149.178 174.719 149.028 173.933 149.028C172.517 149.028 171.437 149.529 170.693 150.531V146.04H169.253V159ZM187.085 159H188.687V147.561H193.106V146.04H182.666V147.561H187.085V159ZM195.537 159H196.869L199.218 151.611L201.567 159H202.899L205.869 149.28H204.285L202.107 156.39L199.929 149.28H198.516L196.329 156.39L194.16 149.28L192.567 149.271L195.537 159ZM207.674 147.561H209.276V145.905H207.674V147.561ZM207.674 159H209.276V149.28H207.674V159ZM217.404 159V157.623C216.738 157.725 216.168 157.743 215.694 157.677C215.226 157.611 214.884 157.386 214.668 157.002C214.554 156.798 214.491 156.558 214.479 156.282C214.473 156 214.47 155.658 214.47 155.256V150.603H217.404V149.28H214.47V146.58H212.868V149.28H210.897V150.603H212.868V155.328C212.868 155.832 212.874 156.282 212.886 156.678C212.904 157.068 213.009 157.452 213.201 157.83C213.429 158.268 213.762 158.592 214.2 158.802C214.638 159.006 215.136 159.117 215.694 159.135C216.258 159.159 216.828 159.114 217.404 159ZM223.731 159V157.623C223.065 157.725 222.495 157.743 222.021 157.677C221.553 157.611 221.211 157.386 220.995 157.002C220.881 156.798 220.818 156.558 220.806 156.282C220.8 156 220.797 155.658 220.797 155.256V150.603H223.731V149.28H220.797V146.58H219.195V149.28H217.224V150.603H219.195V155.328C219.195 155.832 219.201 156.282 219.213 156.678C219.231 157.068 219.336 157.452 219.528 157.83C219.756 158.268 220.089 158.592 220.527 158.802C220.965 159.006 221.463 159.117 222.021 159.135C222.585 159.159 223.155 159.114 223.731 159ZM229.917 159.27C230.859 159.27 231.708 159.036 232.464 158.568C233.22 158.094 233.79 157.428 234.174 156.57L232.635 156.039C232.077 157.179 231.147 157.749 229.845 157.749C228.951 157.749 228.249 157.476 227.739 156.93C227.235 156.378 226.95 155.598 226.884 154.59H234.336C234.384 153.438 234.234 152.445 233.886 151.611C233.544 150.777 233.028 150.135 232.338 149.685C231.654 149.235 230.823 149.01 229.845 149.01C228.903 149.01 228.081 149.223 227.379 149.649C226.677 150.069 226.131 150.669 225.741 151.449C225.357 152.223 225.165 153.141 225.165 154.203C225.165 155.217 225.36 156.105 225.75 156.867C226.146 157.623 226.701 158.214 227.415 158.64C228.129 159.06 228.963 159.27 229.917 159.27ZM229.899 150.45C231.549 150.45 232.473 151.401 232.671 153.303H226.911C227.025 152.379 227.334 151.674 227.838 151.188C228.342 150.696 229.029 150.45 229.899 150.45ZM236.34 159H237.951V154.122C237.951 153.546 238.029 152.991 238.185 152.457C238.341 151.923 238.656 151.488 239.13 151.152C239.466 150.906 239.835 150.762 240.237 150.72C240.645 150.678 241.017 150.699 241.353 150.783V149.28C240.921 149.184 240.447 149.184 239.931 149.28C239.415 149.376 238.971 149.574 238.599 149.874C238.275 150.102 237.999 150.417 237.771 150.819V149.28H236.34V159Z" fill="white"/>
<path fill-rule="evenodd" clip-rule="evenodd" d="M44.4922 147.066C44.4922 147.24 44.4922 147.415 44.4922 147.59C44.4922 153.055 40.4682 159.306 33.1412 159.306C30.8541 159.306 28.7788 158.65 27 157.47C27.2965 157.514 27.6353 157.514 27.9741 157.514C29.8376 157.514 31.5741 156.858 32.9294 155.765C31.1929 155.721 29.7106 154.541 29.2024 152.879C29.4141 152.967 29.6682 152.967 29.9224 152.967C30.3035 152.967 30.6424 152.924 30.9812 152.836C29.16 152.443 27.8047 150.781 27.8047 148.771V148.727C28.3129 149.033 28.9482 149.208 29.5835 149.252C28.5247 148.508 27.8047 147.24 27.8047 145.798C27.8047 145.055 28.0165 144.355 28.3553 143.743C30.3459 146.235 33.2682 147.896 36.6141 148.028C36.5294 147.765 36.4871 147.415 36.4871 147.11C36.4871 144.836 38.2659 143 40.5106 143C41.6541 143 42.671 143.481 43.391 144.268C44.3224 144.093 45.1698 143.743 45.9318 143.306C45.6357 144.268 45 145.055 44.1957 145.579C45 145.448 45.7624 145.229 46.4827 144.923C45.9318 145.754 45.2541 146.453 44.4922 147.066" fill="white"/>
<g filter="url(#filter2_d)">
<rect x="4" y="52" width="300" height="50" rx="15" fill="#507CC0"/>
</g>
<path d="M82.7994 84H90.4134V82.479H84.4014V71.04H82.7994V84ZM96.0758 84.27C97.0418 84.27 97.8728 84.054 98.5688 83.622C99.2708 83.19 99.8108 82.587 100.189 81.813C100.573 81.039 100.765 80.145 100.765 79.131C100.765 78.129 100.576 77.244 100.198 76.476C99.8258 75.702 99.2888 75.099 98.5868 74.667C97.8848 74.229 97.0478 74.01 96.0758 74.01C95.1278 74.01 94.3028 74.226 93.6008 74.658C92.8988 75.084 92.3558 75.681 91.9718 76.449C91.5878 77.217 91.3958 78.111 91.3958 79.131C91.3958 80.133 91.5818 81.021 91.9538 81.795C92.3318 82.569 92.8718 83.175 93.5738 83.613C94.2758 84.051 95.1098 84.27 96.0758 84.27ZM96.0758 82.749C95.0978 82.749 94.3568 82.422 93.8528 81.768C93.3488 81.108 93.0968 80.229 93.0968 79.131C93.0968 78.069 93.3398 77.205 93.8258 76.539C94.3118 75.867 95.0618 75.531 96.0758 75.531C97.0718 75.531 97.8188 75.858 98.3168 76.512C98.8148 77.166 99.0638 78.039 99.0638 79.131C99.0638 80.199 98.8148 81.069 98.3168 81.741C97.8248 82.413 97.0778 82.749 96.0758 82.749ZM106.562 84.27C107.162 84.27 107.699 84.168 108.173 83.964C108.653 83.76 109.067 83.475 109.415 83.109V84.045C109.433 86.043 108.524 87.042 106.688 87.042C106.214 87.042 105.758 86.934 105.32 86.718C104.882 86.502 104.543 86.157 104.303 85.683L102.836 86.457C103.244 87.183 103.796 87.72 104.492 88.068C105.188 88.416 105.917 88.59 106.679 88.59C107.843 88.59 108.791 88.341 109.523 87.843C110.261 87.351 110.723 86.589 110.909 85.557C110.957 85.317 110.987 85.074 110.999 84.828C111.017 84.588 111.026 84.333 111.026 84.063V74.28H109.604V75.369C109.25 74.943 108.818 74.61 108.308 74.37C107.798 74.13 107.213 74.01 106.553 74.01C105.653 74.01 104.879 74.235 104.231 74.685C103.583 75.129 103.082 75.738 102.728 76.512C102.38 77.286 102.206 78.159 102.206 79.131C102.206 80.103 102.38 80.976 102.728 81.75C103.076 82.524 103.574 83.139 104.222 83.595C104.876 84.045 105.656 84.27 106.562 84.27ZM106.76 82.803C106.124 82.803 105.593 82.641 105.167 82.317C104.747 81.993 104.432 81.555 104.222 81.003C104.012 80.445 103.907 79.821 103.907 79.131C103.907 78.447 104.009 77.829 104.213 77.277C104.423 76.725 104.741 76.287 105.167 75.963C105.599 75.639 106.145 75.477 106.805 75.477C107.753 75.477 108.455 75.819 108.911 76.503C109.373 77.181 109.604 78.057 109.604 79.131C109.604 80.199 109.376 81.078 108.92 81.768C108.464 82.458 107.744 82.803 106.76 82.803ZM113.719 72.561H115.321V70.905H113.719V72.561ZM113.719 84H115.321V74.28H113.719V84ZM118.013 84H119.633V78.879C119.633 77.751 119.876 76.914 120.362 76.368C120.854 75.822 121.502 75.549 122.306 75.549C122.99 75.549 123.524 75.72 123.908 76.062C124.292 76.404 124.559 76.848 124.709 77.394C124.865 77.94 124.943 78.519 124.943 79.131V84H126.563V78.627C126.563 78.165 126.506 77.67 126.392 77.142C126.284 76.608 126.086 76.107 125.798 75.639C125.516 75.165 125.123 74.778 124.619 74.478C124.121 74.178 123.479 74.028 122.693 74.028C121.277 74.028 120.197 74.529 119.453 75.531V74.28H118.013V84ZM134.576 84H135.908L138.257 76.611L140.606 84H141.938L144.908 74.28H143.324L141.146 81.39L138.968 74.28H137.555L135.368 81.39L133.199 74.28L131.606 74.271L134.576 84ZM146.713 72.561H148.315V70.905H146.713V72.561ZM146.713 84H148.315V74.28H146.713V84ZM156.443 84V82.623C155.777 82.725 155.207 82.743 154.733 82.677C154.265 82.611 153.923 82.386 153.707 82.002C153.593 81.798 153.53 81.558 153.518 81.282C153.512 81 153.509 80.658 153.509 80.256V75.603H156.443V74.28H153.509V71.58H151.907V74.28H149.936V75.603H151.907V80.328C151.907 80.832 151.913 81.282 151.925 81.678C151.943 82.068 152.048 82.452 152.24 82.83C152.468 83.268 152.801 83.592 153.239 83.802C153.677 84.006 154.175 84.117 154.733 84.135C155.297 84.159 155.867 84.114 156.443 84ZM158.407 84H160.027V78.879C160.027 77.751 160.27 76.914 160.756 76.368C161.248 75.822 161.896 75.549 162.7 75.549C163.384 75.549 163.918 75.72 164.302 76.062C164.686 76.404 164.953 76.848 165.103 77.394C165.259 77.94 165.337 78.519 165.337 79.131V84H166.957V78.627C166.957 78.165 166.9 77.67 166.786 77.142C166.678 76.608 166.48 76.107 166.192 75.639C165.91 75.165 165.517 74.778 165.013 74.478C164.515 74.178 163.873 74.028 163.087 74.028C161.671 74.028 160.591 74.529 159.847 75.531V71.04H158.407V84ZM172.901 84H174.503V78.321H179.381V76.719H174.503V72.642H180.461V71.04H172.901V84ZM184.488 84.27C186.108 84.27 187.308 83.676 188.088 82.488V84H189.51V77.988C189.51 77.604 189.492 77.238 189.456 76.89C189.42 76.536 189.333 76.209 189.195 75.909C188.919 75.273 188.463 74.799 187.827 74.487C187.191 74.169 186.435 74.01 185.559 74.01C184.461 74.01 183.573 74.253 182.895 74.739C182.223 75.225 181.773 75.894 181.545 76.746L183.066 77.205C183.24 76.611 183.549 76.179 183.993 75.909C184.437 75.639 184.953 75.504 185.541 75.504C186.381 75.504 186.984 75.693 187.35 76.071C187.722 76.443 187.917 77.016 187.935 77.79C187.215 77.892 186.459 78 185.667 78.114C184.881 78.222 184.182 78.357 183.57 78.519C182.832 78.735 182.25 79.074 181.824 79.536C181.398 79.992 181.185 80.604 181.185 81.372C181.185 81.894 181.308 82.374 181.554 82.812C181.806 83.25 182.175 83.604 182.661 83.874C183.153 84.138 183.762 84.27 184.488 84.27ZM184.731 82.929C184.041 82.929 183.543 82.77 183.237 82.452C182.931 82.128 182.778 81.765 182.778 81.363C182.778 80.907 182.928 80.559 183.228 80.319C183.534 80.073 183.888 79.887 184.29 79.761C184.764 79.629 185.316 79.518 185.946 79.428C186.576 79.338 187.233 79.248 187.917 79.158C187.917 79.38 187.905 79.632 187.881 79.914C187.863 80.196 187.821 80.454 187.755 80.688C187.641 81.288 187.323 81.813 186.801 82.263C186.285 82.707 185.595 82.929 184.731 82.929ZM195.945 84.27C196.947 84.27 197.805 84.03 198.519 83.55C199.233 83.07 199.761 82.377 200.103 81.471L198.483 81.048C198.033 82.182 197.187 82.749 195.945 82.749C194.979 82.749 194.25 82.419 193.758 81.759C193.272 81.099 193.023 80.226 193.011 79.14C193.023 78.084 193.266 77.22 193.74 76.548C194.214 75.87 194.949 75.531 195.945 75.531C196.533 75.531 197.058 75.687 197.52 75.999C197.982 76.311 198.315 76.749 198.519 77.313L200.103 76.836C199.845 75.96 199.344 75.27 198.6 74.766C197.862 74.262 196.983 74.01 195.963 74.01C194.991 74.01 194.157 74.229 193.461 74.667C192.771 75.099 192.243 75.699 191.877 76.467C191.511 77.235 191.322 78.126 191.31 79.14C191.322 80.13 191.508 81.012 191.868 81.786C192.228 82.56 192.75 83.169 193.434 83.613C194.124 84.051 194.961 84.27 195.945 84.27ZM205.888 84.27C206.83 84.27 207.679 84.036 208.435 83.568C209.191 83.094 209.761 82.428 210.145 81.57L208.606 81.039C208.048 82.179 207.118 82.749 205.816 82.749C204.922 82.749 204.22 82.476 203.71 81.93C203.206 81.378 202.921 80.598 202.855 79.59H210.307C210.355 78.438 210.205 77.445 209.857 76.611C209.515 75.777 208.999 75.135 208.309 74.685C207.625 74.235 206.794 74.01 205.816 74.01C204.874 74.01 204.052 74.223 203.35 74.649C202.648 75.069 202.102 75.669 201.712 76.449C201.328 77.223 201.136 78.141 201.136 79.203C201.136 80.217 201.331 81.105 201.721 81.867C202.117 82.623 202.672 83.214 203.386 83.64C204.1 84.06 204.934 84.27 205.888 84.27ZM205.87 75.45C207.52 75.45 208.444 76.401 208.642 78.303H202.882C202.996 77.379 203.305 76.674 203.809 76.188C204.313 75.696 205 75.45 205.87 75.45ZM212.302 84H213.733V82.902C214.087 83.328 214.516 83.664 215.02 83.91C215.53 84.15 216.115 84.27 216.775 84.27C217.681 84.27 218.458 84.045 219.106 83.595C219.76 83.139 220.261 82.524 220.609 81.75C220.957 80.976 221.131 80.103 221.131 79.131C221.131 78.159 220.957 77.286 220.609 76.512C220.261 75.738 219.76 75.129 219.106 74.685C218.458 74.235 217.684 74.01 216.784 74.01C216.178 74.01 215.635 74.112 215.155 74.316C214.675 74.52 214.261 74.802 213.913 75.162V71.04H212.302V84ZM216.577 82.803C215.599 82.803 214.879 82.458 214.417 81.768C213.961 81.078 213.733 80.199 213.733 79.131C213.733 78.057 213.961 77.181 214.417 76.503C214.879 75.819 215.584 75.477 216.532 75.477C217.192 75.477 217.735 75.639 218.161 75.963C218.593 76.287 218.911 76.725 219.115 77.277C219.325 77.829 219.43 78.447 219.43 79.131C219.43 79.821 219.325 80.445 219.115 81.003C218.905 81.555 218.59 81.993 218.17 82.317C217.75 82.641 217.219 82.803 216.577 82.803ZM227.244 84.27C228.21 84.27 229.041 84.054 229.737 83.622C230.439 83.19 230.979 82.587 231.357 81.813C231.741 81.039 231.933 80.145 231.933 79.131C231.933 78.129 231.744 77.244 231.366 76.476C230.994 75.702 230.457 75.099 229.755 74.667C229.053 74.229 228.216 74.01 227.244 74.01C226.296 74.01 225.471 74.226 224.769 74.658C224.067 75.084 223.524 75.681 223.14 76.449C222.756 77.217 222.564 78.111 222.564 79.131C222.564 80.133 222.75 81.021 223.122 81.795C223.5 82.569 224.04 83.175 224.742 83.613C225.444 84.051 226.278 84.27 227.244 84.27ZM227.244 82.749C226.266 82.749 225.525 82.422 225.021 81.768C224.517 81.108 224.265 80.229 224.265 79.131C224.265 78.069 224.508 77.205 224.994 76.539C225.48 75.867 226.23 75.531 227.244 75.531C228.24 75.531 228.987 75.858 229.485 76.512C229.983 77.166 230.232 78.039 230.232 79.131C230.232 80.199 229.983 81.069 229.485 81.741C228.993 82.413 228.246 82.749 227.244 82.749ZM238.054 84.27C239.02 84.27 239.851 84.054 240.547 83.622C241.249 83.19 241.789 82.587 242.167 81.813C242.551 81.039 242.743 80.145 242.743 79.131C242.743 78.129 242.554 77.244 242.176 76.476C241.804 75.702 241.267 75.099 240.565 74.667C239.863 74.229 239.026 74.01 238.054 74.01C237.106 74.01 236.281 74.226 235.579 74.658C234.877 75.084 234.334 75.681 233.95 76.449C233.566 77.217 233.374 78.111 233.374 79.131C233.374 80.133 233.56 81.021 233.932 81.795C234.31 82.569 234.85 83.175 235.552 83.613C236.254 84.051 237.088 84.27 238.054 84.27ZM238.054 82.749C237.076 82.749 236.335 82.422 235.831 81.768C235.327 81.108 235.075 80.229 235.075 79.131C235.075 78.069 235.318 77.205 235.804 76.539C236.29 75.867 237.04 75.531 238.054 75.531C239.05 75.531 239.797 75.858 240.295 76.512C240.793 77.166 241.042 78.039 241.042 79.131C241.042 80.199 240.793 81.069 240.295 81.741C239.803 82.413 239.056 82.749 238.054 82.749ZM244.716 84H246.345V79.32L250.764 84H253.005L248.208 79.14L252.501 74.28H250.422L246.345 78.96V71.04H244.725L244.716 84Z" fill="white"/>
<path fill-rule="evenodd" clip-rule="evenodd" d="M36.666 68.2125C36.18 68.2125 35.694 68.806 35.694 69.616V72.37H40.5V76.3665H35.694V88.3005H31.104V76.3665H27V72.37H31.104V70.048C31.104 66.7 33.48 64 36.666 64H40.5V68.2125H36.666" fill="white"/>
<path d="M102.64 21.27C103.408 21.27 104.104 21.168 104.728 20.964C105.352 20.754 105.901 20.457 106.375 20.073L107.572 21.261L108.454 20.361L107.257 19.164C108.163 17.982 108.616 16.434 108.616 14.52C108.616 13.188 108.388 12.015 107.932 11.001C107.476 9.987 106.804 9.195 105.916 8.625C105.028 8.055 103.936 7.77 102.64 7.77C101.35 7.77 100.261 8.055 99.3728 8.625C98.4848 9.195 97.8128 9.987 97.3568 11.001C96.9008 12.015 96.6728 13.188 96.6728 14.52C96.6728 15.846 96.9008 17.019 97.3568 18.039C97.8128 19.053 98.4848 19.845 99.3728 20.415C100.261 20.985 101.35 21.27 102.64 21.27ZM102.64 20.001C101.626 19.995 100.777 19.761 100.093 19.299C99.4148 18.837 98.9078 18.195 98.5718 17.373C98.2358 16.551 98.0708 15.6 98.0768 14.52C98.0888 13.44 98.2628 12.489 98.5988 11.667C98.9348 10.839 99.4388 10.194 100.111 9.732C100.783 9.264 101.626 9.033 102.64 9.039C103.654 9.045 104.5 9.279 105.178 9.741C105.856 10.203 106.363 10.845 106.699 11.667C107.041 12.489 107.212 13.44 107.212 14.52C107.212 16.02 106.9 17.241 106.276 18.183L105.016 16.923L104.116 17.823L105.421 19.128C105.067 19.41 104.656 19.626 104.188 19.776C103.726 19.926 103.21 20.001 102.64 20.001ZM114.135 21.243C114.831 21.243 115.458 21.111 116.016 20.847C116.58 20.577 117.042 20.178 117.402 19.65V21H118.59V11.28H117.267V16.464C117.267 17.562 117.021 18.423 116.529 19.047C116.037 19.671 115.323 19.983 114.387 19.983C113.709 19.983 113.163 19.821 112.749 19.497C112.335 19.167 112.035 18.72 111.849 18.156C111.663 17.592 111.57 16.953 111.57 16.239V11.28H110.238V16.626C110.238 17.172 110.304 17.718 110.436 18.264C110.574 18.81 110.793 19.308 111.093 19.758C111.393 20.208 111.792 20.568 112.29 20.838C112.794 21.108 113.409 21.243 114.135 21.243ZM121.286 9.435H122.609V7.95H121.286V9.435ZM121.286 21H122.609V11.28H121.286V21ZM129.339 21.27C130.305 21.27 131.133 21.045 131.823 20.595C132.519 20.139 133.05 19.479 133.416 18.615L132.084 18.219C131.592 19.407 130.677 20.001 129.339 20.001C128.295 20.001 127.509 19.65 126.981 18.948C126.453 18.24 126.183 17.304 126.171 16.14C126.183 15.006 126.444 14.079 126.954 13.359C127.47 12.639 128.265 12.279 129.339 12.279C129.975 12.279 130.539 12.441 131.031 12.765C131.529 13.083 131.892 13.533 132.12 14.115L133.416 13.701C133.146 12.867 132.645 12.21 131.913 11.73C131.187 11.25 130.332 11.01 129.348 11.01C128.382 11.01 127.56 11.226 126.882 11.658C126.204 12.084 125.685 12.684 125.325 13.458C124.965 14.226 124.779 15.12 124.767 16.14C124.779 17.136 124.959 18.021 125.307 18.795C125.661 19.569 126.177 20.175 126.855 20.613C127.533 21.051 128.361 21.27 129.339 21.27ZM135.265 21H136.606V16.32L141.376 21H143.302L138.154 16.14L142.708 11.28H140.944L136.606 15.96V8.04H135.274L135.265 21ZM151.434 21.261C152.628 21.261 153.564 21 154.242 20.478C154.926 19.95 155.268 19.227 155.268 18.309C155.268 17.805 155.16 17.382 154.944 17.04C154.734 16.698 154.371 16.401 153.855 16.149C153.345 15.897 152.643 15.657 151.749 15.429C150.987 15.237 150.399 15.06 149.985 14.898C149.577 14.736 149.295 14.565 149.139 14.385C148.983 14.199 148.905 13.977 148.905 13.719C148.905 13.257 149.121 12.888 149.553 12.612C149.985 12.336 150.546 12.204 151.236 12.216C151.968 12.228 152.571 12.402 153.045 12.738C153.519 13.068 153.804 13.518 153.9 14.088L155.25 13.845C155.184 13.281 154.974 12.786 154.62 12.36C154.266 11.934 153.798 11.604 153.216 11.37C152.64 11.13 151.986 11.01 151.254 11.01C150.522 11.01 149.877 11.127 149.319 11.361C148.767 11.589 148.335 11.913 148.023 12.333C147.717 12.747 147.564 13.23 147.564 13.782C147.564 14.232 147.666 14.616 147.87 14.934C148.08 15.246 148.437 15.525 148.941 15.771C149.445 16.011 150.135 16.251 151.011 16.491C151.833 16.713 152.448 16.905 152.856 17.067C153.27 17.229 153.546 17.406 153.684 17.598C153.822 17.784 153.891 18.027 153.891 18.327C153.891 18.855 153.678 19.275 153.252 19.587C152.826 19.899 152.244 20.055 151.506 20.055C150.75 20.055 150.114 19.893 149.598 19.569C149.082 19.239 148.755 18.798 148.617 18.246L147.267 18.471C147.435 19.347 147.885 20.031 148.617 20.523C149.355 21.015 150.294 21.261 151.434 21.261ZM157.444 9.435H158.767V7.95H157.444V9.435ZM157.444 21H158.767V11.28H157.444V21ZM165.236 21.27C165.89 21.27 166.472 21.144 166.982 20.892C167.492 20.64 167.921 20.292 168.269 19.848V20.847C168.275 21.987 168.05 22.848 167.594 23.43C167.138 24.012 166.382 24.303 165.326 24.303C164.816 24.303 164.315 24.183 163.823 23.943C163.331 23.709 162.953 23.322 162.689 22.782L161.492 23.448C161.906 24.204 162.461 24.75 163.157 25.086C163.859 25.422 164.582 25.59 165.326 25.59C166.514 25.59 167.462 25.332 168.17 24.816C168.878 24.3 169.319 23.499 169.493 22.413C169.535 22.167 169.562 21.915 169.574 21.657C169.592 21.405 169.601 21.141 169.601 20.865V11.28H168.422V12.621C168.068 12.117 167.618 11.724 167.072 11.442C166.532 11.154 165.902 11.01 165.182 11.01C164.294 11.01 163.532 11.235 162.896 11.685C162.26 12.135 161.771 12.747 161.429 13.521C161.093 14.295 160.925 15.165 160.925 16.131C160.925 17.103 161.093 17.976 161.429 18.75C161.771 19.524 162.263 20.139 162.905 20.595C163.553 21.045 164.33 21.27 165.236 21.27ZM165.371 20.037C164.699 20.037 164.135 19.866 163.679 19.524C163.229 19.176 162.89 18.708 162.662 18.12C162.44 17.532 162.329 16.869 162.329 16.131C162.329 15.399 162.44 14.739 162.662 14.151C162.884 13.563 163.22 13.098 163.67 12.756C164.126 12.414 164.702 12.243 165.398 12.243C166.412 12.243 167.168 12.606 167.666 13.332C168.17 14.052 168.422 14.985 168.422 16.131C168.422 16.881 168.311 17.55 168.089 18.138C167.867 18.726 167.531 19.191 167.081 19.533C166.631 19.869 166.061 20.037 165.371 20.037ZM172.108 21H173.44V15.816C173.44 14.718 173.686 13.857 174.178 13.233C174.67 12.609 175.384 12.297 176.32 12.297C176.998 12.297 177.544 12.462 177.958 12.792C178.372 13.116 178.672 13.56 178.858 14.124C179.044 14.688 179.137 15.327 179.137 16.041V21H180.469V15.654C180.469 15.108 180.4 14.562 180.262 14.016C180.13 13.47 179.914 12.972 179.614 12.522C179.314 12.072 178.915 11.712 178.417 11.442C177.919 11.172 177.304 11.037 176.572 11.037C175.876 11.037 175.246 11.172 174.682 11.442C174.124 11.706 173.665 12.102 173.305 12.63V11.28H172.108V21ZM190.125 21.243C190.821 21.243 191.448 21.111 192.006 20.847C192.57 20.577 193.032 20.178 193.392 19.65V21H194.58V11.28H193.257V16.464C193.257 17.562 193.011 18.423 192.519 19.047C192.027 19.671 191.313 19.983 190.377 19.983C189.699 19.983 189.153 19.821 188.739 19.497C188.325 19.167 188.025 18.72 187.839 18.156C187.653 17.592 187.56 16.953 187.56 16.239V11.28H186.228V16.626C186.228 17.172 186.294 17.718 186.426 18.264C186.564 18.81 186.783 19.308 187.083 19.758C187.383 20.208 187.782 20.568 188.28 20.838C188.784 21.108 189.399 21.243 190.125 21.243ZM197.087 25.32H198.419V19.839C198.767 20.283 199.196 20.634 199.706 20.892C200.216 21.144 200.801 21.27 201.461 21.27C202.373 21.27 203.15 21.045 203.792 20.595C204.434 20.139 204.923 19.524 205.259 18.75C205.601 17.976 205.772 17.103 205.772 16.131C205.772 15.165 205.601 14.295 205.259 13.521C204.923 12.747 204.437 12.135 203.801 11.685C203.165 11.235 202.403 11.01 201.515 11.01C200.795 11.01 200.162 11.154 199.616 11.442C199.076 11.724 198.629 12.117 198.275 12.621V11.28H197.087V25.32ZM201.326 20.037C200.636 20.037 200.066 19.869 199.616 19.533C199.166 19.191 198.83 18.726 198.608 18.138C198.386 17.55 198.275 16.881 198.275 16.131C198.275 14.985 198.524 14.052 199.022 13.332C199.526 12.606 200.285 12.243 201.299 12.243C201.995 12.243 202.568 12.414 203.018 12.756C203.474 13.098 203.813 13.563 204.035 14.151C204.257 14.739 204.368 15.399 204.368 16.131C204.368 16.869 204.254 17.532 204.026 18.12C203.804 18.708 203.468 19.176 203.018 19.524C202.568 19.866 202.004 20.037 201.326 20.037ZM208.468 19.56H210.007V18.021H208.468V19.56ZM208.477 14.259H210.016V12.72H208.477V14.259Z" fill="black"/>
<defs>
<filter id="filter0_d" x="0" y="202" width="308" height="58" filterUnits="userSpaceOnUse" color-interpolation-filters="sRGB">
<feFlood flood-opacity="0" result="BackgroundImageFix"/>
<feColorMatrix in="SourceAlpha" type="matrix" values="0 0 0 0 0 0 0 0 0 0 0 0 0 0 0 0 0 0 127 0"/>
<feOffset dy="4"/>
<feGaussianBlur stdDeviation="2"/>
<feColorMatrix type="matrix" values="0 0 0 0 0 0 0 0 0 0 0 0 0 0 0 0 0 0 0.25 0"/>
<feBlend mode="normal" in2="BackgroundImageFix" result="effect1_dropShadow"/>
<feBlend mode="normal" in="SourceGraphic" in2="effect1_dropShadow" result="shape"/>
</filter>
<filter id="filter1_d" x="0" y="127" width="308" height="58" filterUnits="userSpaceOnUse" color-interpolation-filters="sRGB">
<feFlood flood-opacity="0" result="BackgroundImageFix"/>
<feColorMatrix in="SourceAlpha" type="matrix" values="0 0 0 0 0 0 0 0 0 0 0 0 0 0 0 0 0 0 127 0"/>
<feOffset dy="4"/>
<feGaussianBlur stdDeviation="2"/>
<feColorMatrix type="matrix" values="0 0 0 0 0 0 0 0 0 0 0 0 0 0 0 0 0 0 0.25 0"/>
<feBlend mode="normal" in2="BackgroundImageFix" result="effect1_dropShadow"/>
<feBlend mode="normal" in="SourceGraphic" in2="effect1_dropShadow" result="shape"/>
</filter>
<filter id="filter2_d" x="0" y="52" width="308" height="58" filterUnits="userSpaceOnUse" color-interpolation-filters="sRGB">
<feFlood flood-opacity="0" result="BackgroundImageFix"/>
<feColorMatrix in="SourceAlpha" type="matrix" values="0 0 0 0 0 0 0 0 0 0 0 0 0 0 0 0 0 0 127 0"/>
<feOffset dy="4"/>
<feGaussianBlur stdDeviation="2"/>
<feColorMatrix type="matrix" values="0 0 0 0 0 0 0 0 0 0 0 0 0 0 0 0 0 0 0.25 0"/>
<feBlend mode="normal" in2="BackgroundImageFix" result="effect1_dropShadow"/>
<feBlend mode="normal" in="SourceGraphic" in2="effect1_dropShadow" result="shape"/>
</filter>
</defs>
</svg>
